<svg xmlns="http://www.w3.org/2000/svg" xmlns:xlink="http://www.w3.org/1999/xlink" width="300" zoomAndPan="magnify" viewBox="0 0 224.87999 74.999997" height="100" preserveAspectRatio="xMidYMid meet" version="1.0"><defs><g/><clipPath id="9dcbb3b8db"><path d="M 0 3 L 62.59375 3 L 62.59375 67 L 0 67 Z M 0 3 " clip-rule="nonzero"/></clipPath></defs><path fill="#7570ff" d="M 22.960938 38.9375 L 39.613281 38.9375 L 39.613281 57.914062 L 22.960938 57.914062 Z M 22.960938 38.9375 " fill-opacity="1" fill-rule="nonzero"/><g clip-path="url(#9dcbb3b8db)"><path fill="#7570ff" d="M 31.296875 3.113281 L -0.0234375 27.910156 L -0.0234375 66.589844 L 31.296875 66.589844 L 22.960938 57.933594 L 8.660156 57.933594 L 8.660156 32.109375 L 31.296875 14.164062 L 53.9375 32.109375 L 53.9375 57.933594 L 39.636719 57.933594 L 31.296875 66.589844 L 62.617188 66.589844 L 62.617188 27.910156 Z M 31.296875 3.113281 " fill-opacity="1" fill-rule="nonzero"/></g><g fill="#000000" fill-opacity="1"><g transform="translate(70.873357, 58.345085)"><g><path d="M 13.5 0.675781 C 17.796875 0.675781 21.144531 -1.835938 22.65625 -5.042969 L 22.65625 0 L 26.488281 0 L 26.488281 -32.714844 L 22.492188 -32.714844 L 22.492188 -21.003906 L 22.585938 -18.703125 C 21.214844 -21.5625 17.960938 -24.375 13.523438 -24.375 C 6.714844 -24.375 1.835938 -18.773438 1.835938 -11.851562 C 1.835938 -4.878906 6.808594 0.675781 13.5 0.675781 Z M 14.152344 -3.042969 C 9.386719 -3.042969 5.808594 -6.878906 5.808594 -11.851562 C 5.808594 -16.871094 9.480469 -20.632812 14.152344 -20.632812 C 18.820312 -20.632812 22.539062 -16.777344 22.539062 -11.851562 C 22.539062 -6.878906 18.796875 -3.042969 14.152344 -3.042969 Z M 14.152344 -3.042969 "/></g></g></g><g fill="#000000" fill-opacity="1"><g transform="translate(101.193782, 58.345085)"><g><path d="M 14.152344 0.675781 C 21.238281 0.675781 26.511719 -4.878906 26.511719 -11.851562 C 26.511719 -18.796875 21.214844 -24.375 14.152344 -24.375 C 7.109375 -24.375 1.835938 -18.773438 1.835938 -11.851562 C 1.835938 -4.878906 7.132812 0.675781 14.152344 0.675781 Z M 14.195312 -3.089844 C 9.480469 -3.089844 5.832031 -6.808594 5.832031 -11.851562 C 5.832031 -16.847656 9.480469 -20.609375 14.195312 -20.609375 C 18.890625 -20.609375 22.515625 -16.847656 22.515625 -11.851562 C 22.515625 -6.808594 18.890625 -3.089844 14.195312 -3.089844 Z M 14.195312 -3.089844 "/></g></g></g><g fill="#000000" fill-opacity="1"><g transform="translate(129.539314, 58.345085)"><g><path d="M 32.785156 -24.375 C 29.113281 -24.375 25.90625 -22.328125 24.070312 -18.285156 C 22.839844 -22.304688 20.050781 -24.375 15.800781 -24.375 C 11.988281 -24.375 8.851562 -22.097656 7.644531 -19.121094 L 7.597656 -23.699219 L 3.832031 -23.699219 L 3.832031 0 L 7.785156 0 L 7.785156 -12.453125 C 7.785156 -17.289062 11.105469 -20.632812 14.730469 -20.632812 C 18.519531 -20.632812 20.820312 -18.238281 20.820312 -12.78125 L 20.820312 0 L 24.769531 0 L 24.769531 -12.453125 C 24.769531 -17.289062 28.09375 -20.632812 31.695312 -20.632812 C 35.503906 -20.632812 37.804688 -18.21875 37.804688 -12.78125 L 37.804688 0 L 41.777344 0 L 41.777344 -12.847656 C 41.777344 -20.425781 38.664062 -24.375 32.785156 -24.375 Z M 32.785156 -24.375 "/></g></g></g><g fill="#000000" fill-opacity="1"><g transform="translate(174.868931, 58.345085)"><g><path d="M 24.117188 0 L 15.195312 -14.195312 L 22.910156 -23.699219 L 18.007812 -23.699219 L 7.832031 -11.082031 L 7.832031 -32.714844 L 3.832031 -32.714844 L 3.832031 0 L 7.832031 0 L 7.832031 -6.667969 L 12.269531 -11.570312 L 19.585938 0 Z M 24.117188 0 "/></g></g></g><g fill="#000000" fill-opacity="1"><g transform="translate(199.357612, 58.345085)"><g><path d="M 5.089844 8.085938 C 10.222656 8.085938 12.035156 6.019531 14.707031 -0.652344 L 24.050781 -23.699219 L 19.796875 -23.675781 L 13.128906 -6.925781 L 12.523438 -4.855469 L 11.964844 -6.949219 L 5.25 -23.699219 L 1 -23.699219 L 10.410156 -0.695312 L 10.152344 -0.0234375 C 8.921875 3.207031 7.96875 4.71875 5.113281 4.71875 L 1.183594 4.71875 L 1.183594 8.085938 Z M 5.089844 8.085938 "/></g></g></g></svg>